# xmcd CD database file
#
# Track frame offsets:
#	187
#	15000
#	26152
#	33222
#	46397
#	61767
#	75872
#	91170
#	105055
#	117367
#	121462
#	134775
#	149067
#	164202
#	186897
#	188377
#	207065
#	208762
#	221057
#
# Disc length: 3025 seconds
#
# Revision: 13
# Processed by: cddbd v1.5.2PL0 Copyright (c) Steve Scherf et al.
# Submitted via: CDex 1.51
#
DISCID=030bcf13
DTITLE=Jimi Hendrix - BBC Sessions [CD2]
DYEAR=1998
DGENRE=Blues
TTITLE0=Purple Haze
TTITLE1=Killing Floor
TTITLE2=Radio One
TTITLE3=Wait Until Tomorrow
TTITLE4=Day Tripper
TTITLE5=Spanish Castle Magic
TTITLE6=Jammin'
TTITLE7=I was Made To Love Her
TTITLE8=Foxy Lady (Alternate Take)
TTITLE9=A Brand New Sound
TTITLE10=Hey Joe (Alternate Take)
TTITLE11=Manic Depression
TTITLE12=Driving South (Alternate Take)
TTITLE13=Hear My Train A Comin' (Alternate Take)
TTITLE14=A Happening For Lulu
TTITLE15=Voodoo Child (Slight Return)
TTITLE16=Lulu Introduction
TTITLE17=Hey Joe
TTITLE18=Sunshine Of Your Love
EXTD=YEAR: 1998
EXTT0=
EXTT1=
EXTT2=
EXTT3=
EXTT4=
EXTT5=
EXTT6=
EXTT7=
EXTT8=
EXTT9=
EXTT10=
EXTT11=
EXTT12=
EXTT13=
EXTT14=
EXTT15=
EXTT16=
EXTT17=
EXTT18=
PLAYORDER=
